# xmcd CD database file
# Copyright (C) 1993-1998 Ti Kan
#
# Track frame offsets:
#  150
#  19485
#  47935
#  86150
#
# Disc length: 1755 seconds
#
# Revision: 1
# Processed by: cddbd v1.4b41PL1 Copyright (c) Steve Scherf et al.
# Submitted via: CDWizzard Release:4.35
#
DISCID=3206d904
DTITLE=Olive - You're not alone
DYEAR=1900
DGENRE=
TTITLE0=radio edit
TTITLE1=black olive's extended mix
TTITLE2=rollo&sister bliss remix
TTITLE3=oakenfold /osborne
EXTD=
EXTT0=
EXTT1=
EXTT2=
EXTT3=
PLAYORDER=
